<?xml version="1.0" encoding="UTF-8"?>
<svg xmlns="http://www.w3.org/2000/svg" xmlns:xlink="http://www.w3.org/1999/xlink" width="59px" height="64px" viewBox="0 0 59 63" version="1.1">
<g id="surface1">
<path style=" stroke:none;fill-rule:nonzero;fill:rgb(0%,0%,0%);fill-opacity:1;" d="M 27.371094 0.59375 C 26.769531 0.945312 20.703125 6.386719 13.929688 12.71875 C 4.152344 21.867188 1.476562 24.492188 0.957031 25.546875 L 0.273438 26.898438 L 0.273438 57.535156 L 0.984375 58.941406 C 1.777344 60.511719 2.867188 61.539062 4.644531 62.351562 C 5.789062 62.863281 6.363281 62.917969 12.292969 62.917969 C 18.464844 62.917969 18.765625 62.890625 20.160156 62.269531 C 21.003906 61.890625 22.042969 61.105469 22.671875 60.402344 C 24.417969 58.453125 24.582031 57.480469 24.582031 49.632812 L 24.582031 42.785156 L 25.894531 41.269531 L 33.105469 41.269531 L 34.417969 42.785156 L 34.417969 49.632812 C 34.417969 57.480469 34.582031 58.453125 36.328125 60.402344 C 36.957031 61.105469 37.996094 61.890625 38.839844 62.269531 C 40.234375 62.890625 40.535156 62.917969 46.707031 62.917969 C 52.636719 62.917969 53.210938 62.863281 54.355469 62.351562 C 56.1875 61.511719 57.25 60.511719 58.097656 58.777344 L 58.863281 57.234375 L 58.863281 27.195312 L 58.125 25.707031 C 57.496094 24.4375 55.53125 22.515625 45.070312 12.71875 C 38.296875 6.386719 32.230469 0.945312 31.628906 0.59375 C 31.003906 0.269531 30.046875 0 29.5 0 C 28.953125 0 27.996094 0.269531 27.371094 0.59375 Z M 33.652344 8.632812 C 35.808594 10.636719 39.523438 14.125 41.929688 16.371094 C 44.332031 18.617188 47.882812 21.945312 49.820312 23.761719 C 51.789062 25.574219 53.535156 27.332031 53.726562 27.65625 C 54.246094 28.632812 54.246094 55.746094 53.699219 56.804688 C 53.046875 58.046875 52.335938 58.183594 46.40625 58.183594 L 40.917969 58.183594 L 39.332031 56.613281 L 39.332031 49.710938 C 39.332031 44.003906 39.25 42.566406 38.867188 41.433594 C 38.269531 39.589844 36.710938 37.859375 34.910156 37.046875 C 33.597656 36.480469 33.078125 36.398438 29.5 36.398438 C 25.921875 36.398438 25.402344 36.480469 24.089844 37.046875 C 23.246094 37.425781 22.207031 38.183594 21.578125 38.914062 C 19.832031 40.863281 19.667969 41.835938 19.667969 49.738281 L 19.667969 56.613281 L 18.082031 58.183594 L 12.59375 58.183594 C 8.933594 58.183594 6.882812 58.074219 6.417969 57.859375 C 4.917969 57.183594 4.917969 57.207031 4.917969 42.242188 C 4.917969 32.691406 5 28.226562 5.21875 27.792969 C 5.382812 27.414062 8.742188 24.140625 12.675781 20.484375 C 16.582031 16.832031 21.960938 11.824219 24.582031 9.363281 C 27.207031 6.902344 29.445312 4.925781 29.554688 4.953125 C 29.664062 4.980469 31.492188 6.628906 33.652344 8.632812 Z M 33.652344 8.632812 "/>
</g>
</svg>
