<?xml version="1.0" standalone="no"?>
<!DOCTYPE svg PUBLIC "-//W3C//DTD SVG 20010904//EN"
 "http://www.w3.org/TR/2001/REC-SVG-20010904/DTD/svg10.dtd">
<svg version="1.0" xmlns="http://www.w3.org/2000/svg"
 width="64.000000pt" height="55.000000pt" viewBox="0 0 64.000000 55.000000"
 preserveAspectRatio="xMidYMid meet">
<metadata>
Created by potrace 1.16, written by Peter Selinger 2001-2019
</metadata>
<g transform="translate(0.000000,55.000000) scale(0.100000,-0.100000)"
fill="#000000" stroke="none">
<path d="M122 524 c-85 -42 -136 -144 -118 -237 10 -55 60 -121 115 -150 65
-36 129 -36 200 0 62 30 51 35 182 -68 93 -72 123 -83 134 -48 8 25 7 27 -115
122 -80 62 -94 77 -92 98 2 13 5 54 5 90 2 57 -2 72 -28 115 -61 98 -177 131
-283 78z m203 -48 c90 -69 99 -203 19 -278 -126 -117 -332 -3 -300 166 24 126
180 188 281 112z"/>
</g>
</svg>
